<svg id="Layer_1" data-name="Layer 1" xmlns="http://www.w3.org/2000/svg" viewBox="0 0 105.6 105.6"><defs><style>.cls-1{fill:#fff;}.cls-2{fill:#004358;}</style></defs><title>lf-icon</title><circle class="cls-1" cx="52.8" cy="52.8" r="52.8"/><path class="cls-2" d="M91.4,80H82.5a1.94,1.94,0,0,1-1.7-1L64.2,50.4a2.06,2.06,0,0,0-3.5,0l-5.1,8.8a.56.56,0,0,1-.9,0l-4.8-8.3a2.27,2.27,0,0,1,0-2.5L60.6,29.8a2.06,2.06,0,0,1,3.5,0L92.3,78.5A1,1,0,0,1,91.4,80Z" transform="translate(-10.3 -8.9)"/><path class="cls-2" d="M63.4,80H55.7A1.94,1.94,0,0,1,54,79l-4.8-8.4h0a.65.65,0,0,0-1.1,0L43.3,79a2.06,2.06,0,0,1-1.7,1H33.8a1,1,0,0,1-.9-1.5L47.8,52.7a1,1,0,0,1,1.7,0l5.1,8.7,9.8,17.1A1.1,1.1,0,0,1,63.4,80Z" transform="translate(-10.3 -8.9)"/></svg>