<?xml version="1.0" encoding="utf-8"?>
<!-- Generator: Adobe Illustrator 20.1.0, SVG Export Plug-In . SVG Version: 6.00 Build 0)  -->
<svg version="1.1" id="Layer_1" xmlns="http://www.w3.org/2000/svg" xmlns:xlink="http://www.w3.org/1999/xlink" x="0px" y="0px"
	 viewBox="0 0 600 117.5" style="enable-background:new 0 0 600 117.5;" xml:space="preserve">
<style type="text/css">
	.st0{fill:#004358;}
	.st1{fill:#FFFFFF;}
</style>
<g>
	<path class="st0" d="M156.3,99.4V18c0-0.8,0.3-1.5,0.9-2.1c0.6-0.6,1.3-0.9,2.1-0.9s1.6,0.3,2.2,0.9c0.6,0.6,0.9,1.3,0.9,2.1v81.4
		c0,0.8-0.3,1.5-0.9,2.1c-0.6,0.6-1.4,0.9-2.2,0.9s-1.5-0.3-2.1-0.9C156.6,100.9,156.3,100.1,156.3,99.4z"/>
	<path class="st0" d="M182.7,99.4V44.2c0-0.8,0.3-1.5,0.9-2.1c0.6-0.6,1.3-0.9,2.2-0.9s1.6,0.3,2.2,0.9s0.9,1.3,0.9,2.1v55.1
		c0,0.8-0.3,1.5-0.9,2.1c-0.6,0.6-1.4,0.9-2.2,0.9s-1.5-0.3-2.1-0.9C183,100.9,182.7,100.1,182.7,99.4z M188.9,28
		c0,1.8-1.5,3.3-3.3,3.3s-3.3-1.5-3.3-3.3s1.5-3.3,3.3-3.3S188.9,26.2,188.9,28z"/>
	<path class="st0" d="M275.6,72.9c-1.6,0-2.9-1.3-2.9-2.9c0-1.6,1.3-2.9,2.9-2.9h0.1h27.7c-1-5.7-3.7-10.5-8-14.2s-9.4-5.6-15-5.6
		c-5.7,0-10.7,1.9-15,5.5c-4.3,3.7-7.1,8.5-8.2,14.3c-0.5,1.5-0.5,5.8-0.4,5.9c0.3,6.7,2.8,12.2,7.4,16.7s10,6.7,16.3,6.7
		c4.1,0,7.9-1,11.4-3s6.3-4.7,8.4-8.1c1-1.7,2.3-2,4-1c1.7,1.2,2,2.6,1,4.2c-2.7,4.2-6.2,7.6-10.6,10.1s-9.1,3.7-14.2,3.7
		c-8.2,0-15.3-3-21-8.9c-5.8-5.9-8.7-13.1-8.7-21.6s2.9-15.7,8.7-21.6c5.8-6,12.7-9,20.7-9s14.8,2.7,20.4,8.2
		c5.6,5.4,8.7,12.2,9.4,20.3v0.5c0,0.8-0.3,1.5-0.9,2s-1.3,0.7-2.1,0.7L275.6,72.9L275.6,72.9z"/>
	<path class="st0" d="M341.1,50.2v49.3c0,0.8-0.3,1.5-0.9,2.1c-0.6,0.6-1.3,0.9-2.1,0.9c-0.8,0-1.6-0.3-2.2-0.9
		c-0.6-0.6-0.9-1.3-0.9-2.1v-42"/>
	<path class="st0" d="M367.3,77.4V44c0-0.8,0.3-1.5,0.9-2.1s1.3-0.9,2.1-0.9s1.5,0.3,2.1,0.9s0.9,1.3,0.9,2.1v33.3
		c0,5.2,1.8,9.7,5.5,13.4c3.7,3.7,8.1,5.5,13.2,5.6c5.2-0.1,9.7-2,13.4-5.6c3.7-3.7,5.6-8.1,5.6-13.4V44c0-0.8,0.3-1.5,0.9-2.1
		s1.3-0.9,2.2-0.9c0.8,0,1.5,0.3,2.1,0.9c0.6,0.6,0.9,1.3,0.9,2.1v33.3c0,6.9-2.5,12.8-7.3,17.7c-4.9,4.9-10.8,7.3-17.6,7.3
		c-6.9,0-12.8-2.4-17.6-7.3C369.7,90.1,367.3,84.2,367.3,77.4z"/>
	<path class="st0" d="M514.1,99.4V18c0-0.8,0.3-1.5,0.9-2.1c0.6-0.6,1.3-0.9,2.1-0.9s1.6,0.3,2.2,0.9c0.6,0.6,0.9,1.3,0.9,2.1v81.4
		c0,0.8-0.3,1.5-0.9,2.1c-0.6,0.6-1.4,0.9-2.2,0.9s-1.5-0.3-2.1-0.9C514.4,100.9,514.1,100.1,514.1,99.4z"/>
	<path class="st0" d="M536.6,93.6c-1.4-1.2-1.5-2.6-0.4-4c0.5-0.7,1.2-1,2-1.1c0.8-0.1,1.6,0.2,2.2,0.7c6.5,4.7,12.4,7.1,17.7,7.1
		s9.5-1.2,12.6-3.7c3.1-2.1,4.6-4.5,4.6-7.3s-1.4-5.2-4.1-7.4c-2.7-2.2-7.1-3.7-13.1-4.7l-0.2-0.1c-6.5-1.2-11.1-2.7-13.8-4.7
		c-4.4-2.6-6.6-6.2-6.6-11s2.2-8.7,6.6-12c4-2.7,9-4.1,15-4.1c2.4,0,4.8,0.4,7.3,1.2s4.3,1.5,5.6,2.2s3.1,1.8,5.3,3.2
		c0.7,0.5,1.1,1.2,1.2,2c0.2,0.8,0,1.6-0.4,2.2c-0.4,0.7-1,1.1-1.9,1.2c-0.8,0.2-1.6,0-2.2-0.4c-2.1-1.4-3.7-2.4-4.7-3
		s-2.5-1.3-4.6-2c-2-0.7-3.9-1-5.7-1c-4.8,0-8.6,1.1-11.4,3.3c-2.7,2.2-4.1,4.5-4.1,6.9s1.2,4.5,3.5,6.4c2.9,2,7.1,3.4,12.5,4.2h0.2
		c5.4,0.8,10.4,2.5,14.8,5c4.6,3,6.9,7,6.9,12s-2.3,9.2-6.8,12.6c-4.5,3.4-9.6,5-15.4,5C551.3,102.2,543.7,99.4,536.6,93.6z"/>
	<path class="st0" d="M220.9,50.2v49.3c0,0.8-0.3,1.5-0.9,2.1c-0.6,0.6-1.3,0.9-2.1,0.9s-1.6-0.3-2.2-0.9c-0.6-0.6-0.9-1.3-0.9-2.1
		v-42"/>
	<path class="st0" d="M216.6,60.7c-1.2-0.7-1.9-2.1-1.8-3.5c0.3-5.7,1.7-9.8,3.9-12.6c2.7-2.9,6.8-4.4,12.4-4.4
		c0.8,0,1.5,0.3,2.1,0.9c0.6,0.6,0.9,1.4,0.9,2.2s-0.3,1.5-0.9,2.1c-0.6,0.6-1.3,0.9-2.1,0.9c-3.8,0-6.5,0.9-8,2.6
		c-1.4,1.5-2.1,4.4-2.2,8.6c0,1.2-0.5,2.3-1.5,3C218.5,61,217.6,61.2,216.6,60.7z"/>
	<path class="st0" d="M461.7,72.9c-1.6,0-2.9-1.3-2.9-2.9c0-1.6,1.3-2.9,2.9-2.9h0.1h27.7c-1-5.7-3.7-10.5-8-14.2s-9.4-5.6-15-5.6
		c-5.7,0-10.7,1.9-15,5.5c-4.3,3.7-7.1,8.5-8.2,14.3c-0.5,1.5-0.5,5.8-0.4,5.9c0.3,6.7,2.8,12.2,7.4,16.7s10,6.7,16.3,6.7
		c4.1,0,7.9-1,11.4-3s6.3-4.7,8.4-8.1c1-1.7,2.3-2,4-1c1.7,1.2,2,2.6,1,4.2c-2.7,4.2-6.2,7.6-10.6,10.1s-9.1,3.7-14.2,3.7
		c-8.2,0-15.3-3-21-8.9c-5.8-5.9-8.7-13.1-8.7-21.6s2.9-15.7,8.7-21.6c5.8-6,12.7-9,20.7-9s14.8,2.7,20.4,8.2
		c5.6,5.4,8.7,12.2,9.4,20.3v0.5c0,0.8-0.3,1.5-0.9,2s-1.3,0.8-2.2,0.8L461.7,72.9L461.7,72.9z"/>
	<path class="st0" d="M336.8,60.7c-1.2-0.7-1.9-2.1-1.8-3.5c0.3-5.7,1.7-9.8,3.9-12.6c2.7-2.9,6.8-4.4,12.4-4.4
		c0.8,0,1.5,0.3,2.1,0.9c0.6,0.6,0.9,1.4,0.9,2.2s-0.3,1.5-0.9,2.1s-1.3,0.9-2.1,0.9c-3.8,0-6.5,0.9-8,2.6c-1.4,1.5-2.1,4.4-2.2,8.6
		c0,1.2-0.5,2.3-1.5,3C338.7,61,337.8,61.2,336.8,60.7z"/>
	<g>
		<path class="st0" d="M216.5,38.5c-1.1-0.5-1.7-1.7-1.7-3v-1.8c0.2-6.5,1.5-11.2,4-14.2c2.7-2.9,6.8-4.4,12.4-4.4
			c0.8,0,1.5,0.3,2.1,0.9c0.6,0.6,0.9,1.4,0.9,2.2c0,0.8-0.3,1.5-0.9,2.1c-0.6,0.6-1.3,0.9-2.1,0.9c-3.8,0-6.5,0.9-8,2.5
			c-1.5,1.7-2.2,5-2.2,9.9v1.9c0,1.3-0.8,2.6-2,3.1C218,39,217.3,39,216.5,38.5z"/>
		<g>
			<path class="st0" d="M336.7,38.5c-1.1-0.5-1.7-1.7-1.7-3v-1.8c0.2-6.5,1.5-11.2,4-14.2c2.7-2.9,6.8-4.4,12.4-4.4
				c0.8,0,1.5,0.3,2.1,0.9c0.6,0.6,0.9,1.4,0.9,2.2c0,0.8-0.3,1.5-0.9,2.1c-0.6,0.6-1.3,0.9-2.1,0.9c-3.8,0-6.5,0.9-8,2.5
				c-1.5,1.7-2.2,5-2.2,9.9v1.9c0,1.3-0.8,2.6-2,3.1C338.2,39,337.4,38.9,336.7,38.5z"/>
		</g>
	</g>
</g>
<circle class="st0" cx="71.5" cy="58.8" r="52.8"/>
<path class="st1" d="M100.2,76.5h-8.9c-0.7,0-1.4-0.4-1.7-1L73,46.9c-0.7-1.3-2.7-1.3-3.5,0l-5.1,8.8c-0.2,0.3-0.7,0.3-0.9,0
	l-4.8-8.3c-0.5-0.7-0.5-1.7,0-2.5l10.7-18.6c0.7-1.3,2.7-1.3,3.5,0L101.1,75C101.5,75.6,101,76.5,100.2,76.5z"/>
<path class="st1" d="M72.2,76.5h-7.7c-0.7,0-1.4-0.4-1.7-1L58,67.1l0,0c-0.2-0.4-0.9-0.4-1.1,0l-4.8,8.4c-0.4,0.6-1,1-1.7,1h-7.8
	c-0.7,0-1.3-0.8-0.9-1.5l14.9-25.8c0.4-0.7,1.4-0.7,1.7,0l5.1,8.7L73.2,75C73.5,75.6,73,76.5,72.2,76.5z"/>
</svg>
